HIERARCHY
ROOT Hips
{
 OFFSET 0.000000 0.000000 0.000000
 CHANNELS 6 Xposition Yposition Zposition Yrotation Xrotation Zrotation
 JOINT Chest
 {
  OFFSET 0.000000 9.581000 -0.001100
  CHANNELS 3 Yrotation Xrotation Zrotation
  JOINT Chest2
  {
   OFFSET 0.000000 9.561100 0.002200
   CHANNELS 3 Yrotation Xrotation Zrotation
   JOINT Chest3
   {
    OFFSET 0.000000 9.521100 0.000000
    CHANNELS 3 Yrotation Xrotation Zrotation
    JOINT Chest4
    {
     OFFSET 0.000000 9.511400 0.000000
     CHANNELS 3 Yrotation Xrotation Zrotation
     JOINT Neck
     {
      OFFSET 0.000000 14.375100 0.000000
      CHANNELS 3 Yrotation Xrotation Zrotation
      JOINT Head
      {
       OFFSET 0.000000 8.901200 0.004600
       CHANNELS 3 Yrotation Xrotation Zrotation
       End Site
       {
        OFFSET 0.000000 16.962200 0.002400
       }
      }
     }
     JOINT RightCollar
     {
      OFFSET -2.920100 9.518800 0.000000
      CHANNELS 3 Yrotation Xrotation Zrotation
      JOINT RightShoulder
      {
       OFFSET -13.664500 0.000000 0.000000
       CHANNELS 3 Yrotation Xrotation Zrotation
       JOINT RightElbow
       {
        OFFSET 0.000000 -29.999200 0.000000
        CHANNELS 3 Yrotation Xrotation Zrotation
        JOINT RightWrist
        {
         OFFSET 0.000000 -24.253600 0.000000
         CHANNELS 3 Yrotation Xrotation Zrotation
         End Site
         {
          OFFSET 0.000000 -17.918900 0.000000
         }
        }
       }
      }
     }
     JOINT LeftCollar
     {
      OFFSET 2.920100 9.518800 0.000000
      CHANNELS 3 Yrotation Xrotation Zrotation
      JOINT LeftShoulder
      {
       OFFSET 13.664500 0.000000 0.000000
       CHANNELS 3 Yrotation Xrotation Zrotation
       JOINT LeftElbow
       {
        OFFSET 0.000000 -29.999200 0.000000
        CHANNELS 3 Yrotation Xrotation Zrotation
        JOINT LeftWrist
        {
         OFFSET 0.000000 -24.253600 0.000000
         CHANNELS 3 Yrotation Xrotation Zrotation
         End Site
         {
          OFFSET 0.000000 -17.918900 0.000000
         }
        }
       }
      }
     }
    }
   }
  }
 }
 JOINT RightHip
 {
  OFFSET -7.797300 0.005300 0.000500
  CHANNELS 3 Yrotation Xrotation Zrotation
  JOINT RightKnee
  {
   OFFSET 0.000000 -40.663400 -0.000500
   CHANNELS 3 Yrotation Xrotation Zrotation
   JOINT RightAnkle
   {
    OFFSET 0.000000 -39.523700 -0.000900
    CHANNELS 3 Yrotation Xrotation Zrotation
    JOINT RightToe
    {
     OFFSET 0.000000 -6.418000 14.485300
     CHANNELS 3 Yrotation Xrotation Zrotation
     End Site
     {
      OFFSET 0.000000 -1.465200 6.326400
     }
    }
   }
  }
 }
 JOINT LeftHip
 {
  OFFSET 7.797300 0.005300 0.000500
  CHANNELS 3 Yrotation Xrotation Zrotation
  JOINT LeftKnee
  {
   OFFSET 0.000000 -40.663400 -0.000500
   CHANNELS 3 Yrotation Xrotation Zrotation
   JOINT LeftAnkle
   {
    OFFSET 0.000000 -39.523700 -0.000900
    CHANNELS 3 Yrotation Xrotation Zrotation
    JOINT LeftToe
    {
     OFFSET 0.000000 -6.418000 14.485300
     CHANNELS 3 Yrotation Xrotation Zrotation
     End Site
     {
      OFFSET 0.000000 -1.465200 6.326400
     }
    }
   }
  }
 }
}
MOTION
Frames: 9
Frame Time: 0.008333
-13.236931 126.912537 31.444593 -160.320985 -49.583962 -2.615549 -4.352584 26.597384 -0.521837 -0.709798 4.557705 0.057521 -1.103984 7.251435 0.062771 -3.472940 21.752223 -0.252856 -4.311346 22.186543 -5.733607 -3.347883 -1.808446 -5.248500 0.929476 3.224605 0.870387 5.440875 -5.900040 -9.361406 -72.419124 -60.538745 126.409315 2.946439 11.507504 -15.132125 -8.391243 -0.529555 -0.827093 -7.362566 -0.125607 12.422667 54.502345 -52.145361 -106.965485 6.476030 -8.570953 18.928984 -6.479936 -23.508824 -11.311739 -11.728816 78.716649 -13.320885 9.920002 -14.589620 3.751753 0.001084 -0.005994 0.000480 4.115184 5.079578 -2.324529 128.903046 64.936370 146.943404 10.527201 10.522528 4.074735 -0.000867 -0.003547 -0.000384
-13.237557 126.913098 31.445244 -160.320076 -49.590644 -2.613381 -4.335787 26.619191 -0.517857 -0.707571 4.562325 0.057744 -1.112096 7.244464 0.064146 -3.466299 21.757504 -0.251600 -4.266741 22.140933 -5.722267 -3.336439 -1.869936 -5.225911 0.946790 3.176493 0.863656 5.430095 -5.861421 -9.347132 -72.433012 -60.532142 126.401764 2.953793 11.507489 -15.139919 -8.395299 -0.562746 -0.807400 -7.354015 -0.104285 12.390190 54.477514 -52.152113 -106.941414 6.499651 -8.565913 18.927310 -6.477749 -23.501529 -11.323845 -11.730969 78.734806 -13.320670 9.933609 -14.703100 3.727181 0.000562 -0.006216 0.000249 4.116805 5.085731 -2.324179 128.889913 64.936916 146.932727 10.517233 10.517175 4.077241 -0.002249 0.000213 -0.000997
-13.237827 126.914142 31.445416 -160.310499 -49.601716 -2.621679 -4.325093 26.641510 -0.511465 -0.685644 4.581977 0.057199 -1.121081 7.243087 0.067295 -3.474879 21.746686 -0.246683 -4.254033 22.112288 -5.710191 -3.293725 -1.952786 -5.211407 0.942211 3.151063 0.869067 5.434659 -5.846815 -9.343014 -72.378279 -60.535865 126.336794 2.945224 11.506320 -15.153829 -8.405510 -0.586147 -0.791981 -7.351086 -0.095544 12.378116 54.469175 -52.144580 -106.924396 6.504858 -8.560848 18.922164 -6.481617 -23.495152 -11.326813 -11.780216 78.756682 -13.372200 9.944544 -14.773629 3.715946 0.001613 -0.000897 0.000715 4.114059 5.096074 -2.319333 128.897592 64.937245 146.937715 10.523236 10.511828 4.074561 -0.005135 0.006475 -0.002275
-13.237429 126.914375 31.446145 -160.296813 -49.606985 -2.636605 -4.311653 26.655507 -0.499571 -0.684466 4.588864 0.058335 -1.112426 7.255800 0.068417 -3.467362 21.752832 -0.239047 -4.254635 22.068124 -5.692382 -3.251600 -2.038063 -5.194290 0.921301 3.109364 0.876747 5.441461 -5.827484 -9.336180 -72.395401 -60.542231 126.340060 2.924738 11.512524 -15.168004 -8.433012 -0.624262 -0.771495 -7.322039 -0.079978 12.351692 54.426212 -52.135067 -106.851104 6.495064 -8.549933 18.870772 -6.486579 -23.490984 -11.328683 -11.838566 78.775198 -13.423620 9.957850 -14.839622 3.699708 0.003652 0.004572 0.001618 4.110698 5.100628 -2.311382 128.898154 64.937122 146.947604 10.502460 10.487267 4.109666 -0.000127 0.001666 -0.000056
-13.237812 126.914473 31.447242 -160.294048 -49.612328 -2.638812 -4.292511 26.672208 -0.491260 -0.686750 4.590524 0.058652 -1.108967 7.262042 0.069977 -3.453572 21.766009 -0.235817 -4.230510 22.011715 -5.670149 -3.261888 -2.058475 -5.176821 0.910975 3.057627 0.880413 5.430584 -5.798280 -9.320806 -72.376039 -60.549187 126.316457 2.914483 11.505842 -15.182386 -8.455234 -0.684863 -0.739490 -7.286419 -0.039200 12.291185 54.373762 -52.170565 -106.803339 6.514963 -8.545266 18.868750 -6.484622 -23.483227 -11.332293 -11.928915 78.794341 -13.506507 9.956779 -14.937744 3.671074 0.003536 0.003592 0.001567 4.114385 5.103818 -2.308903 128.896934 64.938313 146.950461 10.510729 10.488960 4.105793 0.001709 0.003628 0.000757
-13.237965 126.913788 31.448976 -160.295603 -49.612034 -2.638302 -4.266110 26.684775 -0.481591 -0.696069 4.586441 0.060502 -1.112646 7.261825 0.071873 -3.404233 21.805816 -0.228364 -4.229431 21.934924 -5.637914 -3.226792 -2.157877 -5.147860 0.876601 2.993109 0.890180 5.419372 -5.773745 -9.308400 -72.352743 -60.556212 126.287558 2.917250 11.494583 -15.187564 -8.506819 -0.748452 -0.707464 -7.275794 -0.015368 12.263303 54.357224 -52.181695 -106.775264 6.533038 -8.533970 18.864865 -6.481875 -23.484434 -11.331549 -11.958773 78.807637 -13.533252 9.938734 -15.010077 3.645890 0.000890 0.001404 0.000394 4.117596 5.098854 -2.311330 128.897343 64.932956 146.952940 10.518479 10.490414 4.107210 0.003189 0.005596 0.001413
-13.237947 126.913740 31.450068 -160.293742 -49.617008 -2.642897 -4.262212 26.691021 -0.476925 -0.688582 4.590704 0.059523 -1.114384 7.263269 0.074427 -3.399840 21.807927 -0.225642 -4.193354 21.891055 -5.620001 -3.190833 -2.257727 -5.121089 0.878474 2.965759 0.885582 5.413728 -5.751790 -9.292135 -72.316960 -60.557886 126.247400 2.927212 11.486937 -15.192694 -8.514182 -0.773064 -0.695607 -7.271444 0.003927 12.243357 54.347362 -52.190907 -106.765510 6.558145 -8.530333 18.879418 -6.486173 -23.479210 -11.326196 -11.971805 78.817135 -13.549736 9.932111 -15.069275 3.621668 0.000269 0.000374 0.000119 4.124133 5.092624 -2.313140 128.900481 64.923348 146.962635 10.538103 10.507539 4.084732 0.003192 0.008612 0.001415
-13.237588 126.914465 31.450374 -160.308446 -49.628265 -2.638485 -4.242106 26.704816 -0.471041 -0.686798 4.591435 0.063224 -1.110854 7.268760 0.073408 -3.398268 21.806582 -0.220112 -4.159317 21.842184 -5.600895 -3.166184 -2.329129 -5.101573 0.883800 2.938948 0.885628 5.404342 -5.732829 -9.280999 -72.275734 -60.561752 126.207220 2.914406 11.490768 -15.220110 -8.520218 -0.798485 -0.683875 -7.267651 0.023399 12.224529 54.320933 -52.187340 -106.728976 6.570819 -8.530605 18.870400 -6.476278 -23.462337 -11.322054 -11.957876 78.822103 -13.534909 9.944849 -15.144019 3.580932 0.000676 -0.005202 0.000299 4.137812 5.098582 -2.310213 128.902475 64.923154 146.962611 10.557992 10.517483 4.089560 0.000984 0.008613 0.000436
-13.238096 126.914724 31.451274 -160.307559 -49.635669 -2.639658 -4.218755 26.714360 -0.460099 -0.705062 4.590403 0.063080 -1.098984 7.275867 0.074124 -3.361032 21.826853 -0.214152 -4.154834 21.771108 -5.569435 -3.144883 -2.401035 -5.075998 0.849698 2.893164 0.899543 5.396247 -5.718685 -9.273450 -72.199779 -60.546356 126.148306 2.944013 11.476986 -15.240296 -8.565924 -0.834142 -0.660780 -7.260181 0.031228 12.208811 54.274568 -52.152194 -106.641835 6.590723 -8.525306 18.848095 -6.471692 -23.455740 -11.326268 -11.943774 78.833291 -13.521048 9.953922 -15.177042 3.569023 0.001229 -0.003552 0.000545 4.140758 5.101114 -2.316823 128.898531 64.922013 146.958556 10.564430 10.513141 4.131687 0.000961 0.003700 0.000426
